<svg width="34" height="34" viewBox="0 0 34 34" fill="none" xmlns="http://www.w3.org/2000/svg">
<path d="M28.6875 17.8074V16.9999V16.1818L30.7275 14.3968C31.1035 14.0653 31.3503 13.6116 31.4242 13.1158C31.498 12.62 31.3943 12.1141 31.1312 11.6874L28.6237 7.43738C28.4374 7.11466 28.1695 6.84661 27.8468 6.66012C27.5242 6.47363 27.1582 6.37526 26.7856 6.37488C26.5546 6.37311 26.325 6.409 26.1056 6.48113L23.5237 7.35238C23.0779 7.05617 22.613 6.78995 22.1318 6.55551L21.59 3.87801C21.4928 3.38884 21.2267 2.94943 20.8382 2.63669C20.4497 2.32396 19.9636 2.15783 19.465 2.16738H14.4925C13.9938 2.15783 13.5077 2.32396 13.1192 2.63669C12.7307 2.94943 12.4646 3.38884 12.3675 3.87801L11.8256 6.55551C11.341 6.7899 10.8725 7.0561 10.4231 7.35238L7.89434 6.43863C7.67259 6.38086 7.44296 6.35933 7.21434 6.37488C6.84169 6.37526 6.4757 6.47363 6.15307 6.66012C5.83045 6.84661 5.56254 7.11466 5.37621 7.43738L2.86871 11.6874C2.62071 12.1134 2.52856 12.6125 2.60803 13.099C2.6875 13.5855 2.93366 14.0293 3.30434 14.3543L5.31246 16.1924V17.818L3.30434 19.603C2.92319 19.9303 2.6703 20.382 2.59055 20.878C2.5108 21.3739 2.60935 21.8821 2.86871 22.3124L5.37621 26.5624C5.56254 26.8851 5.83045 27.1532 6.15307 27.3396C6.4757 27.5261 6.84169 27.6245 7.21434 27.6249C7.44527 27.6267 7.67495 27.5908 7.89434 27.5186L10.4762 26.6474C10.922 26.9436 11.387 27.2098 11.8681 27.4443L12.41 30.1218C12.5071 30.6109 12.7732 31.0503 13.1617 31.3631C13.5502 31.6758 14.0363 31.8419 14.535 31.8324H19.55C20.0486 31.8419 20.5347 31.6758 20.9232 31.3631C21.3117 31.0503 21.5778 30.6109 21.675 30.1218L22.2168 27.4443C22.7014 27.2099 23.1699 26.9437 23.6193 26.6474L26.1906 27.5186C26.41 27.5908 26.6397 27.6267 26.8706 27.6249C27.2432 27.6245 27.6092 27.5261 27.9318 27.3396C28.2545 27.1532 28.5224 26.8851 28.7087 26.5624L31.1312 22.3124C31.3792 21.8863 31.4714 21.3873 31.3919 20.9008C31.3124 20.4143 31.0663 19.9705 30.6956 19.6455L28.6875 17.8074ZM26.7856 25.4999L23.1412 24.2674C22.2881 24.99 21.3131 25.5549 20.2618 25.9355L19.5075 29.7499H14.4925L13.7381 25.978C12.6952 25.5866 11.7254 25.0227 10.8693 24.3099L7.21434 25.4999L4.70684 21.2499L7.59684 18.6999C7.40038 17.6 7.40038 16.4741 7.59684 15.3743L4.70684 12.7499L7.21434 8.49988L10.8587 9.73238C11.7118 9.00977 12.6869 8.4449 13.7381 8.06426L14.4925 4.24988H19.5075L20.2618 8.02176C21.3048 8.41321 22.2745 8.9771 23.1306 9.68988L26.7856 8.49988L29.2931 12.7499L26.4031 15.2999C26.5995 16.3997 26.5995 17.5257 26.4031 18.6255L29.2931 21.2499L26.7856 25.4999Z" fill="white"/>
<path d="M17 23.375C15.7391 23.375 14.5066 23.0011 13.4582 22.3006C12.4099 21.6001 11.5928 20.6045 11.1103 19.4396C10.6278 18.2747 10.5015 16.9929 10.7475 15.7563C10.9935 14.5197 11.6006 13.3838 12.4922 12.4922C13.3838 11.6006 14.5197 10.9935 15.7563 10.7475C16.9929 10.5015 18.2747 10.6278 19.4396 11.1103C20.6045 11.5928 21.6001 12.4099 22.3006 13.4582C23.0011 14.5066 23.375 15.7391 23.375 17C23.3835 17.8396 23.2245 18.6724 22.9071 19.4497C22.5897 20.227 22.1205 20.9331 21.5268 21.5268C20.9331 22.1205 20.227 22.5897 19.4497 22.9071C18.6724 23.2245 17.8396 23.3835 17 23.375ZM17 12.75C16.4383 12.7369 15.8798 12.8379 15.3582 13.0469C14.8367 13.2558 14.363 13.5684 13.9657 13.9657C13.5684 14.363 13.2558 14.8367 13.0469 15.3582C12.8379 15.8798 12.7369 16.4383 12.75 17C12.7369 17.5617 12.8379 18.1202 13.0469 18.6418C13.2558 19.1633 13.5684 19.6371 13.9657 20.0343C14.363 20.4316 14.8367 20.7442 15.3582 20.9532C15.8798 21.1621 16.4383 21.2631 17 21.25C17.5617 21.2631 18.1202 21.1621 18.6418 20.9532C19.1633 20.7442 19.6371 20.4316 20.0343 20.0343C20.4316 19.6371 20.7442 19.1633 20.9532 18.6418C21.1621 18.1202 21.2631 17.5617 21.25 17C21.2631 16.4383 21.1621 15.8798 20.9532 15.3582C20.7442 14.8367 20.4316 14.363 20.0343 13.9657C19.6371 13.5684 19.1633 13.2558 18.6418 13.0469C18.1202 12.8379 17.5617 12.7369 17 12.75Z" fill="white"/>
</svg>
