<svg width="150" height="141" viewBox="0 0 150 141" fill="none" xmlns="http://www.w3.org/2000/svg">
<path fill-rule="evenodd" clip-rule="evenodd" d="M119.917 0.905273H31.5698V11.2153H0.851562V59.5753C0.851562 78.2653 21.5889 93.6453 41.9384 95.2453C48.6189 102.445 60.3694 107.675 70.8275 109.905V122.545C60.8267 125.635 42.9624 132.895 41.9384 140.805H110.572C109.538 132.895 89.8549 125.625 79.8342 122.545V109.905C90.3321 107.675 102.609 102.445 109.3 95.2453C129.639 93.6453 149.462 78.2653 149.462 59.5753V11.2153H119.917V0.905273ZM10.2857 20.3753H30.854V62.0353C30.854 70.2553 32.9616 78.0753 36.6696 85.1153C21.2807 80.1853 10.2857 67.4853 10.2857 52.6253V20.3753ZM90.849 71.1853L75.4998 62.6753L60.1308 71.1853L63.0634 53.1853L50.637 40.4453L67.8054 37.8153L75.4998 21.4553L83.1744 37.8153L100.343 40.4453L87.9164 53.1853L90.849 71.1853ZM113.664 86.4453C117.392 79.0853 119.529 70.9453 119.529 62.3353V20.6453H140.147V52.5053C140.147 68.0353 129.103 81.2953 113.664 86.4453Z" fill="#E7D6AC"/>
</svg>
