<svg width="11" height="20" viewBox="0 0 11 20" fill="none" xmlns="http://www.w3.org/2000/svg">
<path d="M8.59204 19.9167C8.38039 19.9174 8.17128 19.8707 7.98006 19.78C7.78884 19.6892 7.62037 19.5568 7.48704 19.3925L0.64454 10.8925C0.436174 10.639 0.322266 10.321 0.322266 9.9929C0.322266 9.66477 0.436174 9.34681 0.64454 9.09332L7.72787 0.593317C7.96833 0.30401 8.31387 0.122076 8.68848 0.0875376C9.06308 0.0529996 9.43606 0.168687 9.72537 0.40915C10.0147 0.649613 10.1966 0.995155 10.2311 1.36976C10.2657 1.74436 10.15 2.11734 9.90954 2.40665L3.57704 9.99998L9.69704 17.5933C9.87027 17.8013 9.98031 18.0545 10.0141 18.323C10.048 18.5915 10.0042 18.8641 9.88793 19.1085C9.77168 19.353 9.58786 19.559 9.3582 19.7022C9.12854 19.8454 8.86267 19.9198 8.59204 19.9167Z" fill="white"/>
</svg>
